<svg xmlns="http://www.w3.org/2000/svg" version="1.1" xmlns:xlink="http://www.w3.org/1999/xlink" xmlns:svgjs="http://svgjs.dev/svgjs" width="1000" height="1000" viewBox="0 0 1000 1000"><rect width="1000" height="1000" fill="#ffffff"></rect><g transform="matrix(0.7,0,0,0.7,149.57576289549638,408.3173221197845)"><svg viewBox="0 0 396 104" data-background-color="#ba3b0a" preserveAspectRatio="xMidYMid meet" height="262" width="1000" xmlns="http://www.w3.org/2000/svg" xmlns:xlink="http://www.w3.org/1999/xlink"><g id="tight-bounds" transform="matrix(1,0,0,1,0.23999699054775192,-0.009822794207110519)"><svg viewBox="0 0 395.52 104.01964558841422" height="104.01964558841422" width="395.52"><g><svg viewBox="0 0 749.8394102429667 197.2037563250883" height="104.01964558841422" width="395.52"><g><rect width="17.695560457386065" height="197.2037563250883" x="290.30039309085265" y="0" fill="#000000" opacity="1" stroke-width="0" stroke="transparent" fill-opacity="1" class="rect-o-0" data-fill-palette-color="primary" rx="1%" id="o-0" data-palette-color="#ffffff"></rect></g><g transform="matrix(1,0,0,1,354.3194102429666,0.4905566077738399)"><svg viewBox="0 0 395.52 196.22264310954063" height="196.22264310954063" width="395.52"><g id="textblocktransform"><svg viewBox="0 0 395.52 196.22264310954063" height="196.22264310954063" width="395.52" id="textblock"><g><svg viewBox="0 0 395.52 196.22264310954063" height="196.22264310954063" width="395.52"><g transform="matrix(1,0,0,1,0,0)"><svg width="395.52" viewBox="2.1500000953674316 -35 70.73999786376953 35.099998474121094" height="196.22264310954063" data-palette-color="#ffffff"><path d="M8-14.2L3.55-14.2Q2.8-14.2 2.75-14.45 2.7-14.7 2.7-15.3L2.7-15.3 2.7-34.05Q2.7-34.2 2.73-34.6 2.75-35 3.3-35L3.3-35 7.95-35Q11.1-35 13.15-33.98 15.2-32.95 16.18-30.78 17.15-28.6 17.15-25.1L17.15-25.1Q17.15-22 16.43-19.93 15.7-17.85 14.43-16.6 13.15-15.35 11.5-14.78 9.85-14.2 8-14.2L8-14.2ZM2.15 0L2.15 0 2.15-34.2Q2.15-34.2 2.27-34.6 2.4-35 3-35L3-35 5.4-35Q6-35 6.1-34.6 6.2-34.2 6.2-34.2L6.2-34.2 6.2-0.8Q6.2-0.4 6.03-0.25 5.85-0.1 5-0.05 4.15 0 2.15 0ZM15.45 0.1L15.45 0.1Q15 0.1 14.38 0.08 13.75 0.05 13.05 0L13.05 0Q12.8-4.3 12.03-7.23 11.25-10.15 10.38-11.88 9.5-13.6 8.85-14.35 8.2-15.1 8.2-15.1L8.2-15.1Q8.2-15.1 8.1-15.4 8-15.7 8.5-16L8.5-16 10.7-17.2Q11.3-17.2 11.55-16.75L11.55-16.75Q11.55-16.75 12.35-15.85 13.15-14.95 14.25-13.03 15.35-11.1 16.3-8.1 17.25-5.1 17.5-0.9L17.5-0.9Q17.5-0.35 17.2-0.13 16.9 0.1 15.45 0.1ZM6.1-31.45L6.1-17.95 8.4-17.95Q9.8-17.95 10.73-18.68 11.65-19.4 12.15-21.03 12.65-22.65 12.65-25.3L12.65-25.3Q12.65-27.2 12.3-28.6 11.95-30 11.08-30.73 10.2-31.45 8.7-31.45L8.7-31.45 6.1-31.45ZM35.95-35L28.3-11.7 26-11.75 18.25-34.35Q18.15-34.7 18.32-34.83 18.5-34.95 19.5-34.98 20.5-35 22.85-35L22.85-35 24.85-28.15Q25.2-26.95 25.62-25.38 26.05-23.8 26.42-22.25 26.8-20.7 27.02-19.48 27.25-18.25 27.3-17.7L27.3-17.7Q27.35-18.25 27.6-19.48 27.85-20.7 28.22-22.25 28.6-23.8 29.02-25.38 29.45-26.95 29.8-28.15L29.8-28.15 31.55-34.25Q31.65-34.65 31.87-34.8 32.1-34.95 33-34.98 33.9-35 35.95-35L35.95-35ZM25.15 0L25.15 0 25.15-17.1 29.2-17.1 29.2-0.8Q29.2-0.4 29.02-0.25 28.85-0.1 28.02-0.05 27.2 0 25.15 0ZM55.35 0L52.34 0 46.6-13.75Q46.3-14.55 45.77-16.03 45.25-17.5 44.65-19.35 44.05-21.2 43.42-23.08 42.8-24.95 42.27-26.55 41.75-28.15 41.45-29.13 41.15-30.1 41.15-30.1L41.15-30.1 38.85-32.6 39.15-35 42.25-35 47.85-21.5Q48.2-20.65 48.72-19.13 49.25-17.6 49.85-15.78 50.45-13.95 51.05-12.13 51.65-10.3 52.15-8.75 52.65-7.2 52.97-6.28 53.3-5.35 53.3-5.35L53.3-5.35 55.75-2.4 55.35 0ZM38.3 0L38.3 0 38.3-34.2Q38.3-35 39.15-35L39.15-35 42.35-34.2 41.8-28.35Q41.9-27.65 41.97-26.4 42.05-25.15 42.1-23.63 42.15-22.1 42.2-20.45 42.25-18.8 42.3-17.3 42.35-15.8 42.35-14.65 42.35-13.5 42.35-12.95L42.35-12.95 42.35-0.8Q42.35-0.4 42.17-0.25 42-0.1 41.17-0.05 40.35 0 38.3 0ZM55.35 0L55.35 0 52.15-0.8 52.59-7.5Q52.5-8.25 52.45-9.47 52.4-10.7 52.34-12.18 52.3-13.65 52.25-15.2 52.2-16.75 52.17-18.18 52.15-19.6 52.15-20.7 52.15-21.8 52.15-22.4L52.15-22.4 52.15-34.2Q52.15-34.6 52.32-34.75 52.5-34.9 53.34-34.95 54.2-35 56.2-35L56.2-35 56.2-0.8Q56.2 0 55.35 0ZM71.89 0L60.04 0 60.04-34.2Q60.04-34.2 60.17-34.6 60.29-35 60.89-35L60.89-35 72.89-35Q72.89-33.35 72.84-32.6 72.79-31.85 72.64-31.6 72.49-31.35 72.14-31.35L72.14-31.35 64.09-31.35 64.09-3.65 72.69-3.65Q72.69-1.95 72.64-1.18 72.59-0.4 72.44-0.2 72.29 0 71.89 0L71.89 0ZM70.89-17.2L60.59-17.2 60.59-20.9 71.64-20.9Q71.64-18.6 71.54-17.9 71.44-17.2 70.89-17.2L70.89-17.2Z" opacity="1" transform="matrix(1,0,0,1,0,0)" fill="#000000" class="wordmark-text-0" data-fill-palette-color="primary" id="text-0"></path></svg></g></svg></g></svg></g></svg></g><g transform="matrix(1,0,0,1,0,0.4905566077738399)"><svg viewBox="0 0 243.97693639612476 196.22264310954063" height="196.22264310954063" width="243.97693639612476"><g><svg xmlns="http://www.w3.org/2000/svg" xmlns:xlink="http://www.w3.org/1999/xlink" version="1.1" x="0" y="0" viewBox="0 9.78600025177002 100.0003433227539 80.42699432373047" enable-background="new 0 0 100 100" xml:space="preserve" width="243.97693639612476" height="196.22264310954063" class="icon-icon-0" data-fill-palette-color="accent" id="icon-0"><path d="M49.942 52.994c13.552-0.488 27.103-0.977 40.653-1.465-2.527-4.177-3.159-7.831-7.989-8.461-7.229-0.94-14.458-1.883-21.688-2.826-14.023-1.827-28.05-3.654-42.075-5.48C20.101 36.792 39.724 53.361 49.942 52.994z" fill="#000000" data-fill-palette-color="accent"></path><path d="M0 9.786c4.391 7.257 26.615 23.072 32.953 23.886 17.33 2.231 34.657 4.46 51.986 6.688-3.393-5.607-4.18-9.35-10.312-10.959-8.904-2.341-17.812-4.683-26.717-7.023C31.94 18.182 15.97 13.984 0 9.786z" fill="#000000" data-fill-palette-color="accent"></path><path d="M63.108 66.207c10.413-2.219 20.826-4.439 31.241-6.66-2.028-3.346-2.034-5.359-5.827-5.189-6.158 0.273-12.314 0.549-18.471 0.822-11.343 0.506-22.686 1.014-34.028 1.518C37.298 58.064 54.94 67.947 63.108 66.207z" fill="#000000" data-fill-palette-color="accent"></path><path d="M87.682 90.213c5.725-3.719 7.262-7.721 10.519-13.807 3.651-6.824 1.257-7.844-2.821-14.596-0.417-0.688-5.842 0.232-6.453 0.904-0.745 0.818-0.248 5.455-0.294 6.496C88.315 76.211 87.998 83.213 87.682 90.213z" fill="#000000" data-fill-palette-color="accent"></path><path d="M86.35 63.447c-3.795 0.809-8.604 0.191-9.572 4.229-1.373 5.736-2.746 11.475-4.12 17.211C81.904 82.678 86.028 71.582 86.35 63.447z" fill="#000000" data-fill-palette-color="accent"></path><path d="M74.666 66.121c-9.148 1.953-8.956 4.611-12.879 13.18C68.007 78.711 73.811 71.941 74.666 66.121z" fill="#000000" data-fill-palette-color="accent"></path></svg></g></svg></g></svg></g><defs></defs></svg><rect width="395.52" height="104.01964558841422" fill="none" stroke="none" visibility="hidden"></rect></g></svg></g></svg>